<?xml version="1.0" standalone="no"?>
<!DOCTYPE svg PUBLIC "-//W3C//DTD SVG 20010904//EN"
 "http://www.w3.org/TR/2001/REC-SVG-20010904/DTD/svg10.dtd">
<svg version="1.0" xmlns="http://www.w3.org/2000/svg"
 width="352.000000pt" height="352.000000pt" viewBox="0 0 352.000000 352.000000"
 preserveAspectRatio="xMidYMid meet">
<metadata>
Created by potrace 1.14, written by Peter Selinger 2001-2017
</metadata>
<g transform="translate(0.000000,352.000000) scale(0.100000,-0.100000)"
fill="#000000" stroke="none">
<path d="M0 1755 l0 -1505 1760 0 1760 0 0 1505 0 1505 -1760 0 -1760 0 0
-1505z m2423 889 c121 -31 204 -94 262 -198 78 -142 89 -279 38 -510 l-6 -29
124 6 c68 4 138 11 156 17 78 28 137 -67 78 -125 -25 -26 -63 -32 -95 -15 -12
7 -71 8 -161 4 -139 -7 -141 -7 -152 -33 -163 -393 -431 -675 -822 -867 l-113
-55 -121 60 c-304 153 -482 297 -658 533 l-65 88 -129 0 c-71 0 -149 -5 -174
-12 -40 -11 -47 -10 -72 8 -21 16 -29 31 -31 61 -3 35 1 44 25 63 21 16 35 20
58 15 16 -4 79 -9 138 -12 l108 -4 -37 72 c-47 95 -99 254 -114 352 -38 253
112 468 365 522 88 18 132 18 220 0 149 -31 318 -142 415 -273 25 -34 47 -61
50 -62 3 0 22 33 43 73 86 169 214 269 410 322 70 19 186 18 260 -1z m297
-1345 c-40 -106 -133 -203 -229 -240 -28 -10 -51 -14 -51 -9 0 6 8 10 18 10
31 0 116 56 165 109 50 53 91 130 104 191 5 25 8 29 11 14 1 -11 -6 -45 -18
-75z m-111 6 c-24 -48 -140 -165 -162 -165 -7 1 4 13 23 28 53 41 107 102 132
149 30 57 36 46 7 -12z"/>
<path d="M2484 2435 c11 -8 23 -15 27 -15 13 0 48 -65 57 -108 9 -39 5 -82
-13 -124 -11 -28 11 -21 23 7 16 35 15 118 -1 158 -21 49 -66 97 -90 97 -22
-1 -22 -1 -3 -15z"/>
<path d="M1836 2158 c-8 -13 -74 -178 -146 -368 -73 -190 -136 -349 -140 -354
-5 -4 -62 103 -128 238 -119 243 -121 246 -152 246 -29 0 -33 -5 -84 -112 -29
-62 -59 -128 -67 -145 l-14 -33 -237 0 -238 0 0 -49 0 -50 258 5 c141 3 263 7
270 10 7 2 36 52 64 111 l50 108 123 -251 c123 -252 138 -274 177 -259 9 4 69
146 144 341 71 183 132 334 135 334 3 0 14 -48 24 -107 24 -151 93 -511 105
-555 12 -41 48 -60 75 -38 7 6 35 75 61 152 25 77 68 200 94 272 l48 131 183
8 c101 4 256 10 344 13 l160 6 1 47 0 47 -55 -3 c-31 -1 -198 -7 -371 -13
-284 -10 -316 -12 -330 -29 -8 -10 -44 -102 -80 -204 -36 -103 -68 -187 -71
-187 -7 0 -55 268 -95 520 -14 90 -30 170 -36 177 -17 21 -56 15 -72 -9z"/>
<path d="M2977 1908 c-9 -7 -19 -27 -23 -44 -5 -26 -1 -35 21 -53 37 -28 69
-27 94 5 25 32 26 52 5 82 -17 25 -69 30 -97 10z"/>
<path d="M516 1629 c-36 -28 -33 -73 6 -102 23 -17 33 -19 55 -11 52 18 57
100 8 122 -34 16 -38 15 -69 -9z"/>
</g>
</svg>
